# xmcd
#
# Track frame offsets: 
#        150
#        17491
#        33524
#        49033
#        66361
#        80238
#        98587
#        112613
#        128243
#        145745
#        162407
#        176480
#        193854
#        208421
#        223941
#        240924
#
# Disc length: 3413 seconds
#
# Revision: 2
# Processed by: cddbd v1.5.2PL0 Copyright (c) Steve Scherf et al.
# Submitted via: ExactAudioCopyFreeDBPlugin 1.0
#
DISCID=e20d5310
DTITLE=Andrea Berg - Die Neue 'Best Of'
DYEAR=2007
DGENRE=Schlager
TTITLE0=Wie viel Träume hab ich geträumt  (1997)
TTITLE1=Doch träumen will ich nur mit dir allein  (2004)
TTITLE2=Lass mich jetzt noch nicht geh'n  (2004)
TTITLE3=Im Feuer der Nacht  (1997)
TTITLE4=Warum  (2004)
TTITLE5=Mama  (2003)
TTITLE6=Und heute Abend geh ich tanzen  (2001)
TTITLE7=Spiel noch einmal nur für mich  (2004)
TTITLE8=Ein Tag mit dir im Paradies  (2003)
TTITLE9=Heut' will ich nur mit dir  (2006)
TTITLE10=Du  (2004)
TTITLE11=Ich weiss, dass du mich belügst  (2004)
TTITLE12=Ein bisschen Wahnsinn  (2006)
TTITLE13=Wenn dein Mund mich küsst  (2004)
TTITLE14=Ein Schiff wird kommen  (2003)
TTITLE15=Nein, das träum ich nicht allein  (2006)
EXTD=YEAR: 2007
EXTT0=
EXTT1=
EXTT2=
EXTT3=
EXTT4=
EXTT5=
EXTT6=
EXTT7=
EXTT8=
EXTT9=
EXTT10=
EXTT11=
EXTT12=
EXTT13=
EXTT14=
EXTT15=
PLAYORDER=
